<svg xmlns:dc="http://purl.org/dc/elements/1.1/" xmlns:cc="http://creativecommons.org/ns#" xmlns:rdf="http://www.w3.org/1999/02/22-rdf-syntax-ns#" xmlns:svg="http://www.w3.org/2000/svg" xmlns="http://www.w3.org/2000/svg" xmlns:sodipodi="http://sodipodi.sourceforge.net/DTD/sodipodi-0.dtd" xmlns:inkscape="http://www.inkscape.org/namespaces/inkscape" width="4978.2642" height="4978.2642" id="svg2" version="1.1" inkscape:version="0.48.4 r9939" inkscape:export-filename="/media/ondra2/data/spsejecna/design-grafika/logo/export/favicon.gif.png" inkscape:export-xdpi="0.28925744" inkscape:export-ydpi="0.28925744" sodipodi:docname="spsejecna-logo-circle2.svg">
  <defs id="defs4"/>
  <sodipodi:namedview id="base" pagecolor="#ffffff" bordercolor="#666666" borderopacity="1.0" inkscape:pageopacity="0.0" inkscape:pageshadow="2" inkscape:zoom="0.079999996" inkscape:cx="2724.6411" inkscape:cy="1907.6223" inkscape:document-units="px" inkscape:current-layer="layer1" showgrid="false" inkscape:window-width="1317" inkscape:window-height="744" inkscape:window-x="49" inkscape:window-y="24" inkscape:window-maximized="1" fit-margin-top="1" fit-margin-left="1" fit-margin-right="1" fit-margin-bottom="1" showguides="false" inkscape:guide-bbox="true" inkscape:snap-bbox="true" inkscape:bbox-paths="true" inkscape:bbox-nodes="true" inkscape:snap-bbox-edge-midpoints="true" inkscape:snap-bbox-midpoints="true" inkscape:snap-center="true" inkscape:snap-global="false">
    <sodipodi:guide orientation="1,0" position="5055.9297,2500.4964" id="guide3006"/>
    <sodipodi:guide orientation="1,0" position="-90.379129,2591.8518" id="guide3008"/>
    <sodipodi:guide orientation="0,1" position="2764.9037,5082.4463" id="guide3020"/>
    <sodipodi:guide orientation="0,1" position="2491.0494,-111.00541" id="guide3022"/>
    <sodipodi:guide orientation="1,0" position="2185.1454,5016.4472" id="guide3017"/>
    <sodipodi:guide orientation="1,0" position="2744.1298,4894.4208" id="guide3019"/>
    <sodipodi:guide orientation="0,1" position="2816.0048,4114.3964" id="guide3021"/>
    <sodipodi:guide orientation="1,0" position="755.06316,4114.3964" id="guide3027"/>
    <sodipodi:guide orientation="1,0" position="4177.6259,4114.3964" id="guide3029"/>
    <sodipodi:guide orientation="0,1" position="3129.9476,3427.4002" id="guide3033"/>
    <sodipodi:guide orientation="0,1" position="755.06316,899.38483" id="guide3043"/>
    <sodipodi:guide orientation="0,1" position="3676.5048,197.0663" id="guide3062"/>
    <sodipodi:guide orientation="1,0" position="2468.1298,1382.7851" id="guide3064"/>
    <sodipodi:guide orientation="0,1" position="-118.96395,2506.8632" id="guide3066"/>
    <sodipodi:guide orientation="0,1" position="4554.9189,3384.0046" id="guide3072"/>
    <sodipodi:guide orientation="1,0" position="4571.4736,3384.0046" id="guide3074"/>
    <sodipodi:guide orientation="0,1" position="4571.4736,3034.7089" id="guide3076"/>
    <sodipodi:guide orientation="1,0" position="2092.5673,2215.9589" id="guide3078"/>
    <sodipodi:guide orientation="0,1" position="4506.5961,3034.7089" id="guide3124"/>
    <sodipodi:guide orientation="1,0" position="2082.5457,853.9477" id="guide3980"/>
  </sodipodi:namedview>
  <metadata id="metadata7">
    <rdf:RDF>
      <cc:Work rdf:about="">
        <dc:format>image/svg+xml</dc:format>
        <dc:type rdf:resource="http://purl.org/dc/dcmitype/StillImage"/>
        <dc:title/>
      </cc:Work>
    </rdf:RDF>
  </metadata>
  <g inkscape:label="Layer 1" inkscape:groupmode="layer" id="layer1" transform="translate(2216.7638,2046.6217)">
    <g id="g3045">
      <path transform="translate(-2696.0715,-2158.4236)" d="m 5337.5002,2611.6072 c 0,1315.128 -1066.1219,2381.25 -2381.25,2381.25 -1315.128,0 -2381.24996,-1066.122 -2381.24996,-2381.25 0,-1315.1281 1066.12196,-2381.25002 2381.24996,-2381.25002 1315.1281,0 2381.25,1066.12192 2381.25,2381.25002 z" sodipodi:ry="2381.25" sodipodi:rx="2381.25" sodipodi:cy="2611.6072" sodipodi:cx="2956.2502" id="path3022" style="fill:#ffffff;fill-opacity:1;stroke:#000000;stroke-width:7;stroke-linecap:round;stroke-linejoin:round;stroke-miterlimit:4;stroke-opacity:1;stroke-dasharray:none" sodipodi:type="arc"/>
      <path id="path2995" d="m 272.38348,-2045.6217 c -1374.15638,0 -2488.14728,1113.99094 -2488.14728,2488.14729 0,1374.15621 1113.9909,2488.11711 2488.14728,2488.11711 1374.15622,0 2488.11712,-1113.9609 2488.11712,-2488.11711 0,-1374.15635 -1113.9609,-2488.14729 -2488.11712,-2488.14729 z m 0,228.5684 c 1247.92142,0 2259.54872,1011.65734 2259.54872,2259.57889 0,1247.92141 -1011.6273,2259.54871 -2259.54872,2259.54871 -1247.92154,0 -2259.57898,-1011.6273 -2259.57898,-2259.54871 0,-1247.92155 1011.65744,-2259.57889 2259.57898,-2259.57889 z" style="fill:#000000;fill-opacity:1;stroke:none" inkscape:connector-curvature="0"/>
      <path id="rect3011" d="m 1.6802818,-1959.6379 0,855.0562 -1376.2823818,0 0,119.09619 0,542.06795 119.0962,0 3174.7546,0 0,-119.06603 0,-427.84391 0,-114.2542 -1379.59064,0 0,-855.0562 -119.09616,0 0,974.75389 119.09616,0 0,-0.6015 1260.49444,0 0,423.00192 -3055.6584,0 0,-423.00192 1257.1861818,0 119.0961582,0 0,-974.15239 -119.0961582,0 z" style="fill:#000000;fill-opacity:1;stroke:none" inkscape:connector-curvature="0"/>
      <path sodipodi:nodetypes="ccccccccccccccczcczcczzccczccczcczzcczccccccccccczzz" id="path3070" style="fill:#000000;fill-opacity:1;fill-rule:nonzero;stroke:none" d="m 1140.6765,1056.1632 233.5086,-1457.80759 924.0961,0 -62.2713,345.588967 -563.1119,-22.269777 -50.8313,367.15179 536.7075,74.22958 -60.0826,323.78532 -520.2622,-80.26516 -54.9573,409.85257 451.7851,285.7394 -58.1833,300.2645 z m -2765.2213,61.8012 176.5775,-317.09533 c 0,0 386.3995,261.46003 469.30733,135.80089 82.90786,-125.65914 -494.63673,-338.97 -647.62803,-451.01352 -139.8283,-116.59511 -197.4774,-282.08232 -156.9952,-438.226929 61.1589,-225.669671 215.3,-365.840041 508.6881,-375.240561 293.38796,-9.40051 504.26919,262.326455 504.26919,262.326455 L -976.03745,252.14497 c 0,0 -362.38875,-356.71172 -448.19195,-170.608245 -85.8033,186.103465 1075.57104,424.130825 791.34887,929.117275 -284.22217,504.9864 -991.66427,107.3104 -991.66427,107.3104 z M -408.60202,975.96087 -709.80582,-342.91355 c 0,0 932.05231,-249.47326 1066.02005,265.399041 C 490.18196,437.3578 -124.33875,572.68084 -124.33875,572.68084 l 71.82701,314.26227 z M -28.334579,28.484743 C -72.192921,-87.917267 -262.96923,-40.917632 -262.96923,-40.917632 l 58.18338,257.090262 c 0,0 220.309617,-71.28588 176.451271,-187.687887 z M 816.40056,954.07124 C 600.39342,965.75472 363.70405,653.67104 363.70405,653.67104 l 223.9116,-175.84848 c 0,0 165.23936,260.71413 227.97991,178.17647 62.74056,-82.53767 -440.71494,-477.28489 -367.42346,-791.30151 48.19006,-114.03329 142.88599,-238.9528 275.80022,-243.61058 11.0567,0 35.00488,0.87962 35.00488,0.87962 l -18.19604,-23.61095 169.27349,0.83207 29.92922,39.23917 26.74371,-39.53992 188.50752,2.22313 -124.7261,135.70826 c 85.8341,64.69414 132.0863,123.79808 169.5585,188.127346 L 994.81748,93.478611 c 0,0 -145.37676,-239.906411 -233.33311,-158.963206 C 673.52801,15.458614 1166.0893,442.5105 1141.5731,660.31543 1117.057,878.12036 1032.4077,942.38775 816.40056,954.07124 z" inkscape:connector-curvature="0"/>
      <g transform="matrix(0.96239316,0,0,0.96239316,32.124627,33.705592)" id="text3150" style="font-size:380px;font-style:normal;font-variant:normal;font-weight:normal;font-stretch:normal;line-height:125%;letter-spacing:0px;word-spacing:0px;fill:#000000;fill-opacity:1;stroke:#ffffff;stroke-width:7;stroke-linecap:round;stroke-linejoin:round;stroke-miterlimit:4;stroke-dasharray:none;font-family:Source Sans Pro;-inkscape-font-specification:Source Sans Pro" inkscape:transform-center-y="-899.75868" inkscape:transform-center-x="-106.87725">
        <path id="path3983" style="font-size:500px;font-weight:bold;letter-spacing:-41.23999786px;fill:#000000;stroke:#ffffff;stroke-width:7;stroke-linecap:round;stroke-linejoin:round;stroke-miterlimit:4;stroke-dasharray:none;-inkscape-font-specification:Source Sans Pro Bold" d="m -1035.3692,2246.8381 36.2872,-63.9178 -96.0941,-54.5543 22.4635,-39.5682 c 34.0655,-60.0044 33.3798,-127.6638 -33.1469,-165.4321 -68.7007,-39.0026 -119.4523,-2.2699 -154.2584,59.0389 l -58.7507,103.486 283.4994,160.9475 m -110.6803,-147.3538 -85.6585,-48.6298 20.2418,-35.6548 c 19.2545,-33.9156 40.4927,-46.0065 70.0601,-29.2206 29.5673,16.7859 35.5935,42.6304 15.5985,77.8504 l -20.2419,35.6548" inkscape:connector-curvature="0"/>
        <path id="path3985" style="font-size:500px;font-weight:bold;letter-spacing:-41.23999786px;fill:#000000;stroke:#ffffff;stroke-width:7;stroke-linecap:round;stroke-linejoin:round;stroke-miterlimit:4;stroke-dasharray:none;-inkscape-font-specification:Source Sans Pro Bold" d="m -1058.8895,1791.2218 24.6587,-28.9127 c 24.9832,-29.2931 46.97997,-38.1332 71.3275,-17.3679 24.34754,20.7652 23.27453,47.4505 -1.70866,76.7436 l -24.65876,28.9127 -69.61878,-59.3757 m 323.90403,32.445 -147.31207,-28.3797 c 10.91865,-36.6883 2.6374,-73.98 -33.8839,-105.1279 -58.96668,-50.2909 -113.89116,-22.8762 -158.66616,29.6232 l -76.2475,89.4012 248.04072,211.5462 47.69523,-55.9233 -89.40119,-76.2475 26.28105,-30.8149 129.95835,28.6937 53.53547,-62.771" inkscape:connector-curvature="0"/>
        <path id="path3987" style="font-size:500px;font-weight:bold;letter-spacing:-41.23999786px;fill:#000000;stroke:#ffffff;stroke-width:7;stroke-linecap:round;stroke-linejoin:round;stroke-miterlimit:4;stroke-dasharray:none;-inkscape-font-specification:Source Sans Pro Bold" d="m -761.85545,1676.1946 -12.68496,-28.3389 c -13.48313,-30.9104 -30.81929,-65.7775 -46.33894,-97.6112 l 1.55329,-1.2599 c 28.01933,21.0515 59.26179,45.2829 86.72454,64.8545 l 24.72296,18.5748 -53.97689,43.7807 m 166.20104,39.0187 60.57839,-49.1351 -284.57746,-188.933 -68.73317,55.7495 126.14167,317.4402 58.24845,-47.2453 -33.28722,-72.7888 77.27628,-62.6788 64.35306,47.5913" inkscape:connector-curvature="0"/>
        <path id="path3989" style="font-size:500px;font-weight:bold;letter-spacing:-41.23999786px;fill:#000000;stroke:#ffffff;stroke-width:7;stroke-linecap:round;stroke-linejoin:round;stroke-miterlimit:4;stroke-dasharray:none;-inkscape-font-specification:Source Sans Pro Bold" d="m -538.53666,1670.3249 64.9456,-34.414 -63.67747,-120.1714 99.40653,-52.6744 63.67748,120.1714 65.38741,-34.648 -152.63866,-288.0581 -65.38741,34.6481 58.7612,110.8935 -99.40653,52.6744 -58.7612,-110.8935 -64.94561,34.4139 152.63866,288.0581" inkscape:connector-curvature="0"/>
        <path id="path3991" style="font-size:500px;font-weight:bold;letter-spacing:-41.23999786px;fill:#000000;stroke:#ffffff;stroke-width:7;stroke-linecap:round;stroke-linejoin:round;stroke-miterlimit:4;stroke-dasharray:none;-inkscape-font-specification:Source Sans Pro Bold" d="m -247.69379,1387.982 -1.01337,-31.0318 c -0.77871,-33.7141 -3.62592,-72.549 -5.94006,-107.8886 l 1.91462,-0.5782 c 17.96522,30.0915 37.70993,64.3465 55.72021,92.8575 l 15.85167,26.5514 -66.53307,20.0897 m 139.06227,99.03 74.670213,-22.5468 -191.879773,-282.5989 -84.72197,25.5819 -3.41157,341.5675 71.79828,-21.6796 -3.25607,-79.9728 95.2524,-28.7616 41.54849,68.4103" inkscape:connector-curvature="0"/>
        <path id="path3993" style="font-size:500px;font-weight:bold;letter-spacing:-41.23999786px;fill:#000000;stroke:#ffffff;stroke-width:7;stroke-linecap:round;stroke-linejoin:round;stroke-miterlimit:4;stroke-dasharray:none;-inkscape-font-specification:Source Sans Pro Bold" d="m 130.14542,1446.2919 223.48063,2.942 0.81612,-61.9947 -63.99445,-0.8424 c -14.99869,-0.1975 -37.02314,1.5128 -53.04806,3.302 52.2063,-53.3174 102.95233,-109.6544 103.65656,-163.1497 0.80296,-60.9947 -41.16689,-101.5507 -103.66141,-102.3734 -45.49601,-0.5989 -75.21731,16.0113 -107.15552,49.0937 l 39.47659,40.0232 c 16.22237,-16.7879 33.92493,-32.0563 56.92291,-31.7535 27.49759,0.362 44.77233,17.5909 44.36426,48.5882 -0.59234,44.996 -58.30489,98.7411 -140.30478,174.1682 l -0.55285,41.9964" inkscape:connector-curvature="0"/>
        <path id="path3995" style="font-size:500px;font-weight:bold;letter-spacing:-41.23999786px;fill:#000000;stroke:#ffffff;stroke-width:7;stroke-linecap:round;stroke-linejoin:round;stroke-miterlimit:4;stroke-dasharray:none;-inkscape-font-specification:Source Sans Pro Bold" d="m 436.89133,1361.1106 120.90328,22.6141 9.56043,-51.1136 -120.90328,-22.6141 -9.56043,51.1136" inkscape:connector-curvature="0"/>
        <path id="path3997" style="font-size:500px;font-weight:bold;letter-spacing:-41.23999786px;fill:#000000;stroke:#ffffff;stroke-width:7;stroke-linecap:round;stroke-linejoin:round;stroke-miterlimit:4;stroke-dasharray:none;-inkscape-font-specification:Source Sans Pro Bold" d="m 608.83323,1441.9014 c 7.54708,44.8279 31.8306,74.4854 78.31269,91.5048 67.61031,24.7555 115.83606,-12.4304 137.49713,-71.5894 l 74.78233,-204.2397 -69.01893,-25.2713 -72.71937,198.6055 c -14.95645,40.8479 -32.74462,48.7113 -57.62897,39.5999 -15.49403,-5.6731 -27.84743,-21.378 -31.55163,-46.1627 l -59.67325,17.5529" inkscape:connector-curvature="0"/>
        <path id="path3999" style="font-size:500px;font-weight:bold;letter-spacing:-41.23999786px;fill:#000000;stroke:#ffffff;stroke-width:7;stroke-linecap:round;stroke-linejoin:round;stroke-miterlimit:4;stroke-dasharray:none;-inkscape-font-specification:Source Sans Pro Bold" d="m 819.4709,1577.6241 182.2492,102.3046 30.3487,-54.0643 -118.15675,-66.3267 36.71218,-65.4004 96.79267,54.334 30.104,-53.6283 -96.79268,-54.3341 32.06198,-57.1163 113.7967,63.8792 30.3488,-54.0644 -177.8892,-99.8571 -159.5756,284.2738" inkscape:connector-curvature="0"/>
        <path id="path4001" style="font-size:500px;font-weight:bold;letter-spacing:-41.23999786px;fill:#000000;stroke:#ffffff;stroke-width:7;stroke-linecap:round;stroke-linejoin:round;stroke-miterlimit:4;stroke-dasharray:none;-inkscape-font-specification:Source Sans Pro Bold" d="m 1112.0623,1559.7573 c -69.4307,84.6736 -52.5337,172.8879 12.808,226.4668 31.3176,25.6798 69.6177,35.7473 110.4693,28.5091 l -3.1015,-60.0906 c -23.4686,3.3872 -45.8393,-0.085 -66.3311,-16.8874 -37.1172,-30.4354 -36.36,-80.2494 6.1227,-132.0588 41.5316,-50.6494 94.0287,-58.6843 129.2127,-29.8342 17.3987,14.2666 23.7474,31.7579 26.9954,53.8192 l 60.1679,-9.5042 c -2.7455,-31.3482 -16.3555,-68.3722 -47.6731,-94.052 -64.9551,-53.2619 -160.1908,-49.8815 -228.6703,33.6321 m 294.614,-81.7224 -39.8309,6.782 -1.5466,-1.2681 -1.1526,-40.3878 -43.6901,-35.825 -0.927,76.8319 55.6758,45.6531 75.1615,-15.9611 -43.6901,-35.825" inkscape:connector-curvature="0"/>
        <path id="path4003" style="font-size:500px;font-weight:bold;letter-spacing:-41.23999786px;fill:#000000;stroke:#ffffff;stroke-width:7;stroke-linecap:round;stroke-linejoin:round;stroke-miterlimit:4;stroke-dasharray:none;-inkscape-font-specification:Source Sans Pro Bold" d="m 1214.6261,1854.1587 44.4711,54.0585 89.1965,-73.3774 c 29.7322,-24.4591 59.5139,-56.7284 85.4095,-81.916 l 1.2706,1.5445 -34.5011,69.8189 -71.4923,168.879 47.9653,58.3059 251.7581,-207.1083 -44.4712,-54.0585 -88.8103,73.0597 c -29.7321,24.4591 -61.4445,58.3166 -86.1817,82.5513 l -1.2706,-1.5446 35.2733,-70.4541 71.1062,-168.5614 -47.9653,-58.3059 -251.7581,207.1084" inkscape:connector-curvature="0"/>
        <path id="path4005" style="font-size:500px;font-weight:bold;letter-spacing:-41.23999786px;fill:#000000;stroke:#ffffff;stroke-width:7;stroke-linecap:round;stroke-linejoin:round;stroke-miterlimit:4;stroke-dasharray:none;-inkscape-font-specification:Source Sans Pro Bold" d="m 1844.1568,2048.8627 -37.1132,-68.6048 -72.0432,-7.0731 28.0728,51.8934 81.0836,23.7845 m -297.7113,29.7358 30.1929,-7.238 c 32.8676,-7.5478 70.3348,-18.1525 104.4857,-27.5315 l 0.9516,1.7591 c -25.8602,23.6536 -55.4406,49.8883 -79.7436,73.268 l -22.8178,20.871 -33.0688,-61.1286 m -69.0169,156.1471 37.1132,68.6047 238.2001,-244.8279 -42.1092,-77.84 -335.2653,65.4001 35.6857,65.9661 77.6812,-19.2843 47.3431,87.5151 -58.6488,54.4662" inkscape:connector-curvature="0"/>
      </g>
      <g style="fill:#000000;fill-opacity:1;stroke:none" transform="matrix(0.99170458,0,0,0.96239316,16.275812,33.705592)" id="g3137">
        <path style="fill:#000000;fill-opacity:1;stroke:none" d="m 2559.9375,3064.0625 c -824.6312,0 -1523.3239,529.0745 -1762.75,1260.1563 l 91.25,62.6874 c 215.9472,-705.0913 882.5808,-1218.7812 1671.5,-1218.7812 792.2595,0 1461.2175,518.0369 1674.2481,1227.7357 l 93.4751,-56.2679 C 4093.0406,3600.5636 3390.3396,3064.0625 2559.9375,3064.0625 z" transform="translate(-2308.5715,-2145.9236)" id="path3039" inkscape:connector-curvature="0" sodipodi:nodetypes="sccsccs"/>
        <path style="fill:#000000;fill-opacity:1;stroke:none" d="m 2559.9375,3694.7812 c -614.3238,0 -1121.5749,449.8343 -1198.3297,1032.1248 l 109.3035,67.0831 c 40.2879,-555.6898 512.4539,-994.2391 1089.0262,-994.2391 564.2031,0 1028.4589,419.9348 1085.8711,958.6406 l 112.9897,-27.3997 C 3683.8829,4146.7207 3175.6971,3694.7812 2559.9375,3694.7812 z" transform="translate(-2308.5715,-2145.9236)" id="path3054" inkscape:connector-curvature="0" sodipodi:nodetypes="sccsccs"/>
      </g>
    </g>
  </g>
</svg>